<svg xmlns="http://www.w3.org/2000/svg" width="280" height="120" viewBox="0 0 280 120">
  <g id="Group_44647" data-name="Group 44647" transform="translate(-67 -391)">
    <g id="Group_44644" data-name="Group 44644" transform="translate(173 391)">
      <path id="Path_77601" data-name="Path 77601" d="M747.738,684.671A12.135,12.135,0,1,0,759.872,696.8,12.135,12.135,0,0,0,747.738,684.671Z" transform="translate(-713.738 -684.671)" fill="#4096ee"/>
      <path id="Path_77602" data-name="Path 77602" d="M748.19,706.967a9.708,9.708,0,1,1,9.708-9.71A9.709,9.709,0,0,1,748.19,706.967Z" transform="translate(-714.19 -685.124)" fill="#cdeb8b"/>
      <path id="Path_77603" data-name="Path 77603" d="M765.548,710.586a12.144,12.144,0,0,0-12.143,12.146v9.717H733.976v-9.717a12.143,12.143,0,1,0-12.143,12.146h9.715V744.6a12.142,12.142,0,1,0,24.285,0v-9.719h9.716a12.146,12.146,0,0,0,0-24.292Z" transform="translate(-709.69 -688.743)" fill="#4096ee"/>
      <path id="Path_77604" data-name="Path 77604" d="M722.277,732.879a9.708,9.708,0,1,1,9.708-9.708v9.708Z" transform="translate(-710.142 -689.172)" fill="#cdeb8b"/>
      <path id="Path_77605" data-name="Path 77605" d="M757.9,749.086a9.708,9.708,0,0,1-19.416,0v-9.709H757.9Z" transform="translate(-714.19 -693.22)" fill="#cdeb8b"/>
      <path id="Path_77606" data-name="Path 77606" d="M774.105,732.879H764.4v-9.708a9.708,9.708,0,1,1,9.709,9.708Z" transform="translate(-718.239 -689.172)" fill="#cdeb8b"/>
    </g>
    <g id="Group_44646" data-name="Group 44646" transform="translate(67 479.973)">
      <path id="Path_77607" data-name="Path 77607" d="M612.27,785.288l-2.288,1.755a12.506,12.506,0,0,0-4.547-3.737,13.294,13.294,0,0,0-5.828-1.273,12.887,12.887,0,0,0-6.431,1.666,11.96,11.96,0,0,0-4.585,4.477,12.389,12.389,0,0,0-1.628,6.323,11.864,11.864,0,0,0,3.64,8.856,12.609,12.609,0,0,0,9.182,3.551,12.914,12.914,0,0,0,10.2-4.773l2.288,1.736a14.637,14.637,0,0,1-5.415,4.27,17,17,0,0,1-7.249,1.509q-7.615,0-12.013-5.069a15.292,15.292,0,0,1-3.689-10.336,14.374,14.374,0,0,1,4.468-10.721,15.4,15.4,0,0,1,11.194-4.349,16.433,16.433,0,0,1,7.337,1.607A14.245,14.245,0,0,1,612.27,785.288Z" transform="translate(-583.904 -778.621)" fill="#4096ee"/>
      <path id="Path_77608" data-name="Path 77608" d="M623.431,779.173h2.761v29.745h-2.761Z" transform="translate(-590.114 -778.621)" fill="#4096ee"/>
      <path id="Path_77609" data-name="Path 77609" d="M634.231,778.518a2.183,2.183,0,0,1,1.61.67,2.279,2.279,0,0,1-1.61,3.887,2.285,2.285,0,0,1-2.258-2.269,2.207,2.207,0,0,1,.668-1.617A2.161,2.161,0,0,1,634.231,778.518Zm-1.371,8.837h2.762v21.461H632.86Z" transform="translate(-591.456 -778.518)" fill="#4096ee"/>
      <path id="Path_77610" data-name="Path 77610" d="M643.111,788.9h2.763v3.846a11.535,11.535,0,0,1,3.668-3.3,9.013,9.013,0,0,1,4.379-1.095,7.612,7.612,0,0,1,4.271,1.223,7.291,7.291,0,0,1,2.752,3.294,17.43,17.43,0,0,1,.887,6.45V810.36h-2.76V800.122a25.217,25.217,0,0,0-.308-4.951,5.434,5.434,0,0,0-1.841-3.2,5.555,5.555,0,0,0-3.551-1.076,6.816,6.816,0,0,0-4.489,1.657,7.762,7.762,0,0,0-2.614,4.1,28.556,28.556,0,0,0-.394,5.839v7.87h-2.763Z" transform="translate(-593.206 -780.062)" fill="#4096ee"/>
      <path id="Path_77611" data-name="Path 77611" d="M673.056,778.518a2.185,2.185,0,0,1,1.61.67,2.279,2.279,0,0,1-1.61,3.887,2.285,2.285,0,0,1-2.259-2.269,2.21,2.21,0,0,1,.668-1.617A2.162,2.162,0,0,1,673.056,778.518Zm-1.371,8.837h2.76v21.461h-2.76Z" transform="translate(-597.556 -778.518)" fill="#4096ee"/>
      <path id="Path_77612" data-name="Path 77612" d="M702.578,793.357l-2.189,1.36a9.171,9.171,0,0,0-7.743-3.768,8.959,8.959,0,0,0-6.511,2.521,8.234,8.234,0,0,0-2.593,6.129,8.706,8.706,0,0,0,1.193,4.413,8.35,8.35,0,0,0,3.27,3.211,9.887,9.887,0,0,0,12.384-2.623l2.189,1.44a10.332,10.332,0,0,1-4.133,3.594,13.194,13.194,0,0,1-5.908,1.279,11.674,11.674,0,0,1-8.442-3.235,10.524,10.524,0,0,1-3.354-7.871,11.238,11.238,0,0,1,1.568-5.79,11.043,11.043,0,0,1,4.31-4.171,12.577,12.577,0,0,1,6.135-1.5,13.071,13.071,0,0,1,4.112.652,11.434,11.434,0,0,1,3.363,1.7A9.185,9.185,0,0,1,702.578,793.357Z" transform="translate(-599.119 -780.062)" fill="#4096ee"/>
      <path id="Path_77613" data-name="Path 77613" d="M734.144,788.9V810.36h-2.721v-3.688a11.85,11.85,0,0,1-3.9,3.176,10.882,10.882,0,0,1-12.506-2.239,11.081,11.081,0,0,1-3.225-8.039,10.875,10.875,0,0,1,3.254-7.93,10.61,10.61,0,0,1,7.83-3.294,10.124,10.124,0,0,1,4.783,1.124,10.878,10.878,0,0,1,3.758,3.373V788.9Zm-11.035,2.111a8.33,8.33,0,0,0-7.359,4.315,8.689,8.689,0,0,0,.01,8.668,8.446,8.446,0,0,0,3.122,3.221,8.147,8.147,0,0,0,4.207,1.155,8.612,8.612,0,0,0,4.3-1.145,7.992,7.992,0,0,0,3.123-3.093,8.828,8.828,0,0,0,1.093-4.392,8.544,8.544,0,0,0-2.453-6.227A8.131,8.131,0,0,0,723.109,791.009Z" transform="translate(-603.998 -780.062)" fill="#4096ee"/>
      <path id="Path_77614" data-name="Path 77614" d="M745.191,779.173h2.762v29.745h-2.762Z" transform="translate(-609.244 -778.621)" fill="#4096ee"/>
      <g id="Group_44645" data-name="Group 44645" transform="translate(141.982)">
        <path id="Path_77615" data-name="Path 77615" d="M755.114,779.617H760.5v7.911h3.2v4.635h-3.2v16.826h-5.385V792.162h-2.762v-4.635h2.762Z" transform="translate(-752.352 -778.691)" fill="#cdeb8b"/>
        <path id="Path_77616" data-name="Path 77616" d="M767.727,788.9h4.616v2.7a5.76,5.76,0,0,1,1.992-2.427,4.812,4.812,0,0,1,2.723-.829,5.027,5.027,0,0,1,2.189.553l-1.676,4.635a3.7,3.7,0,0,0-1.558-.473,2.466,2.466,0,0,0-2.1,1.538q-.857,1.539-.857,6.036l.019,1.045v8.679h-5.346Z" transform="translate(-754.768 -780.062)" fill="#cdeb8b"/>
        <path id="Path_77617" data-name="Path 77617" d="M786.409,778.518a3.293,3.293,0,0,1,2.43,1.025,3.409,3.409,0,0,1,1.011,2.487,3.368,3.368,0,0,1-1,2.455,3.377,3.377,0,0,1-4.848-.02,3.46,3.46,0,0,1-1.014-2.514,3.432,3.432,0,0,1,3.423-3.432Zm-2.693,8.837H789.1v21.461h-5.384Z" transform="translate(-757.165 -778.518)" fill="#cdeb8b"/>
        <path id="Path_77618" data-name="Path 77618" d="M811.7,788.9h5.386V810.36H811.7v-2.268a10.557,10.557,0,0,1-3.162,2.159,8.862,8.862,0,0,1-3.438.662,9.551,9.551,0,0,1-7.191-3.225,11.254,11.254,0,0,1-3.034-8.019,11.528,11.528,0,0,1,2.935-8.146,9.356,9.356,0,0,1,7.132-3.176,9.053,9.053,0,0,1,3.626.731,9.846,9.846,0,0,1,3.132,2.189Zm-5.66,4.418a5.44,5.44,0,0,0-4.149,1.765,6.361,6.361,0,0,0-1.651,4.527,6.431,6.431,0,0,0,1.681,4.577,5.448,5.448,0,0,0,4.139,1.795,5.55,5.55,0,0,0,4.207-1.765,6.457,6.457,0,0,0,1.671-4.627,6.265,6.265,0,0,0-1.671-4.536A5.614,5.614,0,0,0,806.04,793.317Z" transform="translate(-759.033 -780.062)" fill="#cdeb8b"/>
        <path id="Path_77619" data-name="Path 77619" d="M826.982,779.173h5.385v29.745h-5.385Z" transform="translate(-764.077 -778.621)" fill="#cdeb8b"/>
        <path id="Path_77620" data-name="Path 77620" d="M838.473,779.173h5.384v29.745h-5.384Z" transform="translate(-765.883 -778.621)" fill="#cdeb8b"/>
        <path id="Path_77621" data-name="Path 77621" d="M852.52,778.518a3.293,3.293,0,0,1,2.43,1.025,3.406,3.406,0,0,1,1.011,2.487,3.368,3.368,0,0,1-1,2.455,3.377,3.377,0,0,1-4.848-.02,3.456,3.456,0,0,1-1.014-2.514,3.43,3.43,0,0,1,3.422-3.432Zm-2.693,8.837h5.385v21.461h-5.385Z" transform="translate(-767.552 -778.518)" fill="#cdeb8b"/>
        <path id="Path_77622" data-name="Path 77622" d="M862.156,788.9h5.385v2.2a12.9,12.9,0,0,1,3.319-2.148,8.01,8.01,0,0,1,3.044-.6,7.373,7.373,0,0,1,5.416,2.229,7.655,7.655,0,0,1,1.87,5.6V810.36h-5.326v-9.4a23.77,23.77,0,0,0-.344-5.1,3.51,3.51,0,0,0-1.2-1.921,3.363,3.363,0,0,0-2.116-.659,3.962,3.962,0,0,0-2.8,1.093,5.825,5.825,0,0,0-1.623,3.024,24.365,24.365,0,0,0-.237,4.354v8.61h-5.385Z" transform="translate(-769.604 -780.062)" fill="#cdeb8b"/>
        <path id="Path_77623" data-name="Path 77623" d="M890.964,779.173h5.385V796.3l7.93-8.847h6.763L901.8,797.742l10.351,11.177h-6.686l-9.112-9.892v9.892h-5.385Z" transform="translate(-774.13 -778.621)" fill="#cdeb8b"/>
      </g>
    </g>
  </g>
</svg>
